<svg xmlns="http://www.w3.org/2000/svg" viewBox="0 0 1200 960" role="img" aria-labelledby="title desc">
  <title id="title">Bal Coffee mug and bag</title>
  <desc id="desc">A warm tabletop scene with a Bal Coffee bag, a filled mug, date seeds, and soft morning light.</desc>
  <defs>
    <linearGradient id="wall" x1="0" x2="1" y1="0" y2="1">
      <stop offset="0" stop-color="#f4ecdc"/>
      <stop offset="0.58" stop-color="#dfcfb5"/>
      <stop offset="1" stop-color="#a97d53"/>
    </linearGradient>
    <linearGradient id="table" x1="0" x2="0" y1="0" y2="1">
      <stop offset="0" stop-color="#b8956f"/>
      <stop offset="1" stop-color="#805b3b"/>
    </linearGradient>
    <linearGradient id="bag" x1="0" x2="0" y1="0" y2="1">
      <stop offset="0" stop-color="#ead6b0"/>
      <stop offset="1" stop-color="#b88750"/>
    </linearGradient>
    <linearGradient id="brew" x1="0" x2="0" y1="0" y2="1">
      <stop offset="0" stop-color="#744322"/>
      <stop offset="1" stop-color="#261208"/>
    </linearGradient>
    <radialGradient id="glow" cx="30%" cy="10%" r="70%">
      <stop offset="0" stop-color="#fff8ea" stop-opacity="0.8"/>
      <stop offset="0.5" stop-color="#fff1d3" stop-opacity="0.25"/>
      <stop offset="1" stop-color="#fff1d3" stop-opacity="0"/>
    </radialGradient>
    <filter id="shadow" x="-20%" y="-20%" width="140%" height="140%">
      <feDropShadow dx="0" dy="34" stdDeviation="32" flood-color="#3d2919" flood-opacity="0.24"/>
    </filter>
  </defs>
  <rect width="1200" height="960" fill="url(#wall)"/>
  <rect width="1200" height="960" fill="url(#glow)"/>
  <rect y="732" width="1200" height="228" fill="url(#table)"/>
  <ellipse cx="610" cy="786" rx="430" ry="58" fill="#3a2416" opacity="0.18"/>

  <g opacity="0.9">
    <rect x="470" y="162" width="222" height="154" fill="#ded1b4"/>
    <ellipse cx="581" cy="162" rx="111" ry="28" fill="#c8b487"/>
    <path d="M581 160 C 525 84 475 48 408 32 C 455 92 504 144 552 168" fill="#5e6d3f"/>
    <path d="M580 160 C 632 70 710 30 786 22 C 748 90 676 152 608 170" fill="#77844d"/>
    <path d="M580 160 C 566 82 572 26 586 0 C 612 58 616 114 596 170" fill="#89945b"/>
  </g>

  <g filter="url(#shadow)">
    <ellipse cx="354" cy="742" rx="210" ry="34" fill="#47301e" opacity="0.28"/>
    <path d="M190 482 Q 190 436 248 436 L 456 436 Q 514 436 514 482 L 514 682 Q 514 746 434 746 L 270 746 Q 190 746 190 682 Z" fill="#fbf4e8" stroke="#a98b67" stroke-width="5"/>
    <ellipse cx="352" cy="444" rx="153" ry="31" fill="#f7efe1" stroke="#a98b67" stroke-width="4"/>
    <ellipse cx="352" cy="443" rx="132" ry="22" fill="url(#brew)"/>
    <ellipse cx="352" cy="438" rx="95" ry="13" fill="#bf8c62" opacity="0.64"/>
    <path d="M514 510 Q 610 522 610 592 Q 610 662 514 674" fill="none" stroke="#a98b67" stroke-width="17" stroke-linecap="round"/>
    <path d="M514 536 Q 577 546 577 592 Q 577 638 514 648" fill="none" stroke="#fbf4e8" stroke-width="9" stroke-linecap="round"/>
  </g>

  <g filter="url(#shadow)">
    <path d="M720 262 L 1035 262 Q 1066 262 1066 300 L 1066 724 Q 1066 760 1026 760 L 730 760 Q 690 760 690 724 L 690 300 Q 690 262 720 262 Z" fill="url(#bag)" stroke="#805930" stroke-width="4"/>
    <path d="M720 262 L 878 220 L 1035 262" fill="#cda36e" stroke="#805930" stroke-width="4"/>
    <path d="M756 388 H1000 V650 H756 Z" fill="#f8eddb" stroke="#7a5531" stroke-width="3"/>
    <text x="878" y="444" text-anchor="middle" fill="#2a1f17" font-family="Georgia, serif" font-size="52" font-weight="600" letter-spacing="7">BAL</text>
    <line x1="790" y1="478" x2="966" y2="478" stroke="#7a5531" stroke-width="2"/>
    <text x="878" y="548" text-anchor="middle" fill="#2a1f17" font-family="Georgia, serif" font-size="30" font-weight="600">EASTERN BREW</text>
    <text x="878" y="586" text-anchor="middle" fill="#7a5531" font-family="monospace" font-size="17" letter-spacing="4">DATE SEED COFFEE</text>
    <circle cx="810" cy="620" r="18" fill="#7a5531" opacity="0.28"/>
    <circle cx="850" cy="635" r="15" fill="#7a5531" opacity="0.24"/>
    <circle cx="946" cy="620" r="18" fill="#7a5531" opacity="0.28"/>
  </g>

  <g fill="#56321b" opacity="0.85">
    <ellipse cx="618" cy="778" rx="26" ry="13" transform="rotate(-18 618 778)"/>
    <ellipse cx="674" cy="806" rx="23" ry="12" transform="rotate(20 674 806)"/>
    <ellipse cx="742" cy="788" rx="25" ry="12" transform="rotate(-8 742 788)"/>
  </g>
</svg>
